<?xml version="1.0" encoding="utf-8"?>
<!-- Generator: Adobe Illustrator 24.1.1, SVG Export Plug-In . SVG Version: 6.00 Build 0)  -->
<svg version="1.1" id="Capa_1" xmlns="http://www.w3.org/2000/svg" xmlns:xlink="http://www.w3.org/1999/xlink" x="0px" y="0px"
	 viewBox="0 0 34.68 32.07" style="enable-background:new 0 0 34.68 32.07;" xml:space="preserve">
<style type="text/css">
	.st0{fill:#DD5152;}
	.st1{clip-path:url(#SVGID_4_);fill:url(#SVGID_5_);}
	.st2{clip-path:url(#SVGID_4_);}
	.st3{fill:#FFFFFF;}
	.st4{clip-path:url(#SVGID_9_);}
	.st5{clip-path:url(#SVGID_4_);fill:#2B6584;}
	.st6{clip-path:url(#SVGID_4_);fill:#009D5D;}
	.st7{fill-rule:evenodd;clip-rule:evenodd;fill:#FFFFFF;}
	.st8{fill:#009D5D;}
	.st9{clip-path:url(#SVGID_4_);fill:#FFFFFF;}
	.st10{fill-rule:evenodd;clip-rule:evenodd;fill:#DD5152;}
	.st11{fill:none;stroke:#DD5152;stroke-width:1.5761;stroke-miterlimit:10;}
	.st12{clip-path:url(#SVGID_4_);fill:#2B6584;stroke:#2B6584;stroke-miterlimit:10;}
	.st13{fill-rule:evenodd;clip-rule:evenodd;fill:#009D5D;}
	.st14{fill:#2B6584;}
	.st15{clip-path:url(#SVGID_15_);}
	.st16{fill:#FFFFFF;stroke:#FFFFFF;stroke-linecap:round;stroke-linejoin:bevel;stroke-miterlimit:10;}
	.st17{fill-rule:evenodd;clip-rule:evenodd;fill:#2B6584;}
	.st18{clip-path:url(#SVGID_4_);fill-rule:evenodd;clip-rule:evenodd;fill:#2B6584;}
	.st19{fill:#020203;}
	.st20{fill-rule:evenodd;clip-rule:evenodd;fill:#020203;}
	.st21{fill:none;stroke:#F6A000;stroke-width:1.1435;stroke-miterlimit:10;}
	.st22{fill:none;stroke:#DD5152;stroke-miterlimit:10;}
	.st23{fill:url(#SVGID_20_);}
	.st24{fill:url(#SVGID_21_);}
	.st25{clip-path:url(#SVGID_27_);}
	.st26{clip-path:url(#SVGID_33_);}
	.st27{clip-path:url(#SVGID_69_);}
	.st28{clip-path:url(#SVGID_75_);}
	.st29{clip-path:url(#SVGID_79_);}
	.st30{clip-path:url(#SVGID_75_);fill:#2B6584;}
	.st31{clip-path:url(#SVGID_75_);fill:#009D5D;}
	.st32{clip-path:url(#SVGID_85_);}
	.st33{clip-path:url(#SVGID_89_);}
	.st34{clip-path:url(#SVGID_85_);fill:url(#SVGID_94_);}
	.st35{clip-path:url(#SVGID_98_);}
	.st36{clip-path:url(#SVGID_85_);fill:#2B6584;}
	.st37{clip-path:url(#SVGID_85_);fill:#009D5D;}
	.st38{fill:url(#SVGID_103_);}
	.st39{clip-path:url(#SVGID_109_);}
	.st40{opacity:0.7;fill:#DD5152;}
	.st41{clip-path:url(#SVGID_131_);fill:url(#SVGID_132_);}
	.st42{clip-path:url(#SVGID_131_);fill:url(#SVGID_133_);}
	.st43{clip-path:url(#SVGID_131_);}
	.st44{clip-path:url(#SVGID_139_);}
	.st45{clip-path:url(#SVGID_131_);fill:#009D5D;}
	.st46{clip-path:url(#SVGID_143_);fill:url(#SVGID_144_);}
	.st47{clip-path:url(#SVGID_143_);fill:url(#SVGID_145_);}
	.st48{clip-path:url(#SVGID_143_);}
	.st49{clip-path:url(#SVGID_151_);}
	.st50{clip-path:url(#SVGID_143_);fill:#009D5D;}
	.st51{clip-path:url(#SVGID_143_);fill:none;}
	.st52{fill:#E0E0E0;}
	.st53{fill:#F4F4F4;}
	.st54{clip-path:url(#SVGID_155_);}
	.st55{clip-path:url(#SVGID_157_);fill:url(#SVGID_158_);}
	.st56{clip-path:url(#SVGID_157_);fill:url(#SVGID_159_);}
	.st57{clip-path:url(#SVGID_157_);}
	.st58{clip-path:url(#SVGID_165_);}
	.st59{clip-path:url(#SVGID_157_);fill:#009D5D;}
	.st60{clip-path:url(#SVGID_169_);fill:url(#SVGID_170_);}
	.st61{clip-path:url(#SVGID_169_);fill:url(#SVGID_171_);}
	.st62{clip-path:url(#SVGID_169_);}
	.st63{clip-path:url(#SVGID_177_);}
	.st64{clip-path:url(#SVGID_181_);fill:url(#SVGID_182_);}
	.st65{clip-path:url(#SVGID_181_);fill:url(#SVGID_183_);}
	.st66{clip-path:url(#SVGID_181_);}
	.st67{clip-path:url(#SVGID_189_);}
	.st68{clip-path:url(#SVGID_181_);fill:#009D5D;}
	.st69{clip-path:url(#SVGID_193_);fill:url(#SVGID_194_);}
	.st70{clip-path:url(#SVGID_193_);fill:url(#SVGID_195_);}
	.st71{clip-path:url(#SVGID_193_);}
	.st72{clip-path:url(#SVGID_201_);}
	.st73{clip-path:url(#SVGID_193_);fill:#009D5D;}
	.st74{fill:#FFFFFF;stroke:#2B6584;stroke-width:2.0462;stroke-miterlimit:10;}
	.st75{clip-path:url(#SVGID_205_);}
	.st76{fill:#3DAA35;}
	.st77{clip-path:url(#SVGID_207_);}
	.st78{clip-path:url(#SVGID_211_);}
	.st79{clip-path:url(#SVGID_207_);fill:#2B6584;}
	.st80{clip-path:url(#SVGID_207_);fill:#009D5D;}
	.st81{clip-path:url(#SVGID_217_);}
	.st82{clip-path:url(#SVGID_219_);}
	.st83{clip-path:url(#SVGID_223_);}
	.st84{clip-path:url(#SVGID_219_);fill:#2B6584;}
	.st85{clip-path:url(#SVGID_219_);fill:#009D5D;}
	.st86{clip-path:url(#SVGID_229_);}
	.st87{clip-path:url(#SVGID_233_);}
	.st88{clip-path:url(#SVGID_229_);fill:#2B6584;}
	.st89{clip-path:url(#SVGID_229_);fill:#009D5D;}
	.st90{clip-path:url(#SVGID_239_);}
	.st91{clip-path:url(#SVGID_243_);}
	.st92{clip-path:url(#SVGID_239_);fill:#2B6584;}
	.st93{clip-path:url(#SVGID_239_);fill:#009D5D;}
	.st94{clip-path:url(#SVGID_249_);}
	.st95{clip-path:url(#SVGID_253_);}
	.st96{clip-path:url(#SVGID_249_);fill:#2B6584;}
	.st97{clip-path:url(#SVGID_249_);fill:#009D5D;}
	.st98{fill:#FFFFFF;stroke:#2B6584;stroke-width:1.6073;stroke-miterlimit:10;}
	.st99{clip-path:url(#SVGID_259_);}
</style>
<g>
	<path class="st3" d="M17.34,2.19c8.25,0,14.97,6.21,14.97,13.84c0,7.63-6.71,13.84-14.97,13.84c-8.25,0-14.97-6.21-14.97-13.84
		C2.37,8.4,9.09,2.19,17.34,2.19 M17.34,0C7.76,0,0,7.18,0,16.03s7.76,16.03,17.34,16.03s17.34-7.18,17.34-16.03S26.92,0,17.34,0
		L17.34,0z"/>
	<path class="st3" d="M26.56,11.83c-0.12-1.12-0.59-2.11-1.49-2.9c-0.94-0.83-2.1-1.2-3.37-1.26c-2.16-0.11-7.29-0.18-9.09,0.09
		c-2.06,0.31-3.41,1.42-3.97,3.3c-0.44,1.45-0.35,8.11-0.1,9.53c0.35,1.95,1.6,3.21,3.69,3.7c1.45,0.35,8.57,0.3,10.17,0.06
		c2.11-0.32,3.47-1.46,4.02-3.4C26.85,19.48,26.71,13.17,26.56,11.83z M24.87,20.32c-0.25,1.48-1.31,2.4-2.92,2.57
		c-1.48,0.15-8.1,0.23-9.47-0.12c-1.31-0.34-2.07-1.18-2.28-2.4c-0.21-1.17-0.26-7.01,0-8.57c0.24-1.47,1.31-2.39,2.91-2.55
		c1.63-0.17,7.48-0.19,9.04,0.03c1.6,0.23,2.59,1.21,2.77,2.71C25.07,13.38,25.12,18.82,24.87,20.32z M17.53,11.71
		c-2.6,0-4.71,1.95-4.71,4.35c0,2.41,2.11,4.36,4.71,4.36s4.71-1.95,4.71-4.35C22.23,13.66,20.13,11.71,17.53,11.71z M17.49,18.88
		c-1.68-0.01-3.03-1.29-3.02-2.84c0.02-1.56,1.39-2.8,3.07-2.79c1.68,0.01,3.03,1.29,3.02,2.84C20.55,17.64,19.18,18.89,17.49,18.88
		z M23.52,11.55c0,0.56-0.5,1.02-1.11,1.02c-0.61,0-1.1-0.46-1.1-1.02c0-0.56,0.5-1.02,1.11-1.02
		C23.03,10.53,23.52,10.98,23.52,11.55z"/>
	<path class="st3" d="M26.56,11.83c-0.12-1.12-0.59-2.11-1.49-2.9c-0.94-0.83-2.1-1.2-3.37-1.26c-2.16-0.11-7.29-0.18-9.09,0.09
		c-2.06,0.31-3.41,1.42-3.97,3.3c-0.44,1.45-0.35,8.11-0.1,9.53c0.35,1.95,1.6,3.21,3.69,3.7c1.45,0.35,8.57,0.3,10.17,0.06
		c2.11-0.32,3.47-1.46,4.02-3.4C26.85,19.48,26.71,13.17,26.56,11.83z M24.87,20.32c-0.25,1.48-1.31,2.4-2.92,2.57
		c-1.48,0.15-8.1,0.23-9.47-0.12c-1.31-0.34-2.07-1.18-2.28-2.4c-0.21-1.17-0.26-7.01,0-8.57c0.24-1.47,1.31-2.39,2.91-2.55
		c1.63-0.17,7.48-0.19,9.04,0.03c1.6,0.23,2.59,1.21,2.77,2.71C25.07,13.38,25.12,18.82,24.87,20.32z M17.53,11.71
		c-2.6,0-4.71,1.95-4.71,4.35c0,2.41,2.11,4.36,4.71,4.36s4.71-1.95,4.71-4.35C22.23,13.66,20.13,11.71,17.53,11.71z M17.49,18.88
		c-1.68-0.01-3.03-1.29-3.02-2.84c0.02-1.56,1.39-2.8,3.07-2.79c1.68,0.01,3.03,1.29,3.02,2.84C20.55,17.64,19.18,18.89,17.49,18.88
		z M23.52,11.55c0,0.56-0.5,1.02-1.11,1.02c-0.61,0-1.1-0.46-1.1-1.02c0-0.56,0.5-1.02,1.11-1.02
		C23.03,10.53,23.52,10.98,23.52,11.55z"/>
</g>
</svg>
