<svg id="Capa_1" data-name="Capa 1" xmlns="http://www.w3.org/2000/svg" viewBox="0 0 34.68 32.07"><path d="M17.34,2.19c8.25,0,15,6.21,15,13.84s-6.72,13.84-15,13.84-15-6.21-15-13.84,6.72-13.84,15-13.84m0-2.19C7.76,0,0,7.18,0,16s7.76,16,17.34,16,17.34-7.18,17.34-16S26.92,0,17.34,0Z" style="fill:#009d5d"/><path d="M19.57,10.08c.63,0,1.26,0,1.9,0h.26V7C21.39,7,21,7,20.68,7c-.64,0-1.29-.06-1.94,0A5.05,5.05,0,0,0,16,7.69a3.76,3.76,0,0,0-1.65,2.53,8.15,8.15,0,0,0-.11,1.3c0,.68,0,1.37,0,2.05v.25H11.1v3.39h3.12v8.52H18V17.22h3.11c.16-1.12.32-2.24.48-3.4H18s0-1.68,0-2.41C18.07,10.41,18.71,10.11,19.57,10.08Z" style="fill:#009d5d;fill-rule:evenodd"/></svg>