<svg id="Capa_1" data-name="Capa 1" xmlns="http://www.w3.org/2000/svg" viewBox="0 0 34.68 32.07"><path d="M17.34,2.19c8.25,0,15,6.21,15,13.84s-6.72,13.84-15,13.84-15-6.21-15-13.84,6.72-13.84,15-13.84m0-2.19C7.76,0,0,7.18,0,16s7.76,16,17.34,16,17.34-7.18,17.34-16S26.92,0,17.34,0Z" style="fill:#009d5d"/><path d="M26.56,11.83a4.35,4.35,0,0,0-1.49-2.89,5.26,5.26,0,0,0-3.36-1.27,69.94,69.94,0,0,0-9.09.1,4.52,4.52,0,0,0-4,3.29c-.44,1.45-.35,8.11-.1,9.54a4.45,4.45,0,0,0,3.69,3.7,58.45,58.45,0,0,0,10.17.06,4.53,4.53,0,0,0,4-3.39C26.85,19.48,26.71,13.17,26.56,11.83Zm-1.69,8.49A3,3,0,0,1,22,22.89c-1.49.15-8.1.23-9.48-.13a2.87,2.87,0,0,1-2.28-2.39,53.31,53.31,0,0,1,0-8.58A3,3,0,0,1,13.1,9.24a69.88,69.88,0,0,1,9,0A3,3,0,0,1,24.91,12,56.69,56.69,0,0,1,24.87,20.32Zm-7.34-8.61a4.55,4.55,0,0,0-4.72,4.35,4.54,4.54,0,0,0,4.71,4.36,4.54,4.54,0,0,0,4.71-4.35A4.54,4.54,0,0,0,17.53,11.71Zm0,7.17a3,3,0,0,1-3-2.84,3,3,0,0,1,3.08-2.79,2.93,2.93,0,0,1,3,2.84A3,3,0,0,1,17.49,18.88Zm6-7.33a1.1,1.1,0,1,1-1.1-1A1.07,1.07,0,0,1,23.52,11.55Z" style="fill:#009d5d"/><path d="M26.56,11.83a4.35,4.35,0,0,0-1.49-2.89,5.26,5.26,0,0,0-3.36-1.27,69.94,69.94,0,0,0-9.09.1,4.52,4.52,0,0,0-4,3.29c-.44,1.45-.35,8.11-.1,9.54a4.45,4.45,0,0,0,3.69,3.7,58.45,58.45,0,0,0,10.17.06,4.53,4.53,0,0,0,4-3.39C26.85,19.48,26.71,13.17,26.56,11.83Zm-1.69,8.49A3,3,0,0,1,22,22.89c-1.49.15-8.1.23-9.48-.13a2.87,2.87,0,0,1-2.28-2.39,53.31,53.31,0,0,1,0-8.58A3,3,0,0,1,13.1,9.24a69.88,69.88,0,0,1,9,0A3,3,0,0,1,24.91,12,56.69,56.69,0,0,1,24.87,20.32Zm-7.34-8.61a4.55,4.55,0,0,0-4.72,4.35,4.54,4.54,0,0,0,4.71,4.36,4.54,4.54,0,0,0,4.71-4.35A4.54,4.54,0,0,0,17.53,11.71Zm0,7.17a3,3,0,0,1-3-2.84,3,3,0,0,1,3.08-2.79,2.93,2.93,0,0,1,3,2.84A3,3,0,0,1,17.49,18.88Zm6-7.33a1.1,1.1,0,1,1-1.1-1A1.07,1.07,0,0,1,23.52,11.55Z" style="fill:#009d5d"/></svg>