<?xml version="1.0" encoding="utf-8"?>
<!-- Generator: Adobe Illustrator 24.1.1, SVG Export Plug-In . SVG Version: 6.00 Build 0)  -->
<svg version="1.1" id="Capa_1" xmlns="http://www.w3.org/2000/svg" xmlns:xlink="http://www.w3.org/1999/xlink" x="0px" y="0px"
	 viewBox="0 0 34.68 32.07" style="enable-background:new 0 0 34.68 32.07;" xml:space="preserve">
<style type="text/css">
	.st0{fill:#DD5152;}
	.st1{clip-path:url(#SVGID_4_);fill:url(#SVGID_5_);}
	.st2{clip-path:url(#SVGID_4_);}
	.st3{fill:#FFFFFF;}
	.st4{clip-path:url(#SVGID_9_);}
	.st5{clip-path:url(#SVGID_4_);fill:#2B6584;}
	.st6{clip-path:url(#SVGID_4_);fill:#009D5D;}
	.st7{fill-rule:evenodd;clip-rule:evenodd;fill:#FFFFFF;}
	.st8{fill:#009D5D;}
	.st9{clip-path:url(#SVGID_4_);fill:#FFFFFF;}
	.st10{fill-rule:evenodd;clip-rule:evenodd;fill:#DD5152;}
	.st11{fill:none;stroke:#DD5152;stroke-width:1.5761;stroke-miterlimit:10;}
	.st12{clip-path:url(#SVGID_4_);fill:#2B6584;stroke:#2B6584;stroke-miterlimit:10;}
	.st13{fill-rule:evenodd;clip-rule:evenodd;fill:#009D5D;}
	.st14{fill:#2B6584;}
	.st15{clip-path:url(#SVGID_15_);}
	.st16{fill:#FFFFFF;stroke:#FFFFFF;stroke-linecap:round;stroke-linejoin:bevel;stroke-miterlimit:10;}
	.st17{fill-rule:evenodd;clip-rule:evenodd;fill:#2B6584;}
	.st18{clip-path:url(#SVGID_4_);fill-rule:evenodd;clip-rule:evenodd;fill:#2B6584;}
	.st19{fill:#020203;}
	.st20{fill-rule:evenodd;clip-rule:evenodd;fill:#020203;}
	.st21{fill:none;stroke:#F6A000;stroke-width:1.1435;stroke-miterlimit:10;}
	.st22{fill:none;stroke:#DD5152;stroke-miterlimit:10;}
	.st23{fill:url(#SVGID_20_);}
	.st24{fill:url(#SVGID_21_);}
	.st25{clip-path:url(#SVGID_27_);}
	.st26{clip-path:url(#SVGID_33_);}
	.st27{clip-path:url(#SVGID_69_);}
	.st28{clip-path:url(#SVGID_75_);}
	.st29{clip-path:url(#SVGID_79_);}
	.st30{clip-path:url(#SVGID_75_);fill:#2B6584;}
	.st31{clip-path:url(#SVGID_75_);fill:#009D5D;}
	.st32{clip-path:url(#SVGID_85_);}
	.st33{clip-path:url(#SVGID_89_);}
	.st34{clip-path:url(#SVGID_85_);fill:url(#SVGID_94_);}
	.st35{clip-path:url(#SVGID_98_);}
	.st36{clip-path:url(#SVGID_85_);fill:#2B6584;}
	.st37{clip-path:url(#SVGID_85_);fill:#009D5D;}
	.st38{fill:url(#SVGID_103_);}
	.st39{clip-path:url(#SVGID_109_);}
	.st40{opacity:0.7;fill:#DD5152;}
	.st41{clip-path:url(#SVGID_131_);fill:url(#SVGID_132_);}
	.st42{clip-path:url(#SVGID_131_);fill:url(#SVGID_133_);}
	.st43{clip-path:url(#SVGID_131_);}
	.st44{clip-path:url(#SVGID_139_);}
	.st45{clip-path:url(#SVGID_131_);fill:#009D5D;}
	.st46{clip-path:url(#SVGID_143_);fill:url(#SVGID_144_);}
	.st47{clip-path:url(#SVGID_143_);fill:url(#SVGID_145_);}
	.st48{clip-path:url(#SVGID_143_);}
	.st49{clip-path:url(#SVGID_151_);}
	.st50{clip-path:url(#SVGID_143_);fill:#009D5D;}
	.st51{clip-path:url(#SVGID_143_);fill:none;}
	.st52{fill:#E0E0E0;}
	.st53{fill:#F4F4F4;}
	.st54{clip-path:url(#SVGID_155_);}
	.st55{clip-path:url(#SVGID_157_);fill:url(#SVGID_158_);}
	.st56{clip-path:url(#SVGID_157_);fill:url(#SVGID_159_);}
	.st57{clip-path:url(#SVGID_157_);}
	.st58{clip-path:url(#SVGID_165_);}
	.st59{clip-path:url(#SVGID_157_);fill:#009D5D;}
	.st60{clip-path:url(#SVGID_169_);fill:url(#SVGID_170_);}
	.st61{clip-path:url(#SVGID_169_);fill:url(#SVGID_171_);}
	.st62{clip-path:url(#SVGID_169_);}
	.st63{clip-path:url(#SVGID_177_);}
	.st64{clip-path:url(#SVGID_181_);fill:url(#SVGID_182_);}
	.st65{clip-path:url(#SVGID_181_);fill:url(#SVGID_183_);}
	.st66{clip-path:url(#SVGID_181_);}
	.st67{clip-path:url(#SVGID_189_);}
	.st68{clip-path:url(#SVGID_181_);fill:#009D5D;}
	.st69{clip-path:url(#SVGID_193_);fill:url(#SVGID_194_);}
	.st70{clip-path:url(#SVGID_193_);fill:url(#SVGID_195_);}
	.st71{clip-path:url(#SVGID_193_);}
	.st72{clip-path:url(#SVGID_201_);}
	.st73{clip-path:url(#SVGID_193_);fill:#009D5D;}
	.st74{fill:#FFFFFF;stroke:#2B6584;stroke-width:2.0462;stroke-miterlimit:10;}
	.st75{clip-path:url(#SVGID_205_);}
	.st76{fill:#3DAA35;}
	.st77{clip-path:url(#SVGID_207_);}
	.st78{clip-path:url(#SVGID_211_);}
	.st79{clip-path:url(#SVGID_207_);fill:#2B6584;}
	.st80{clip-path:url(#SVGID_207_);fill:#009D5D;}
	.st81{clip-path:url(#SVGID_217_);}
	.st82{clip-path:url(#SVGID_219_);}
	.st83{clip-path:url(#SVGID_223_);}
	.st84{clip-path:url(#SVGID_219_);fill:#2B6584;}
	.st85{clip-path:url(#SVGID_219_);fill:#009D5D;}
	.st86{clip-path:url(#SVGID_229_);}
	.st87{clip-path:url(#SVGID_233_);}
	.st88{clip-path:url(#SVGID_229_);fill:#2B6584;}
	.st89{clip-path:url(#SVGID_229_);fill:#009D5D;}
	.st90{clip-path:url(#SVGID_239_);}
	.st91{clip-path:url(#SVGID_243_);}
	.st92{clip-path:url(#SVGID_239_);fill:#2B6584;}
	.st93{clip-path:url(#SVGID_239_);fill:#009D5D;}
	.st94{clip-path:url(#SVGID_249_);}
	.st95{clip-path:url(#SVGID_253_);}
	.st96{clip-path:url(#SVGID_249_);fill:#2B6584;}
	.st97{clip-path:url(#SVGID_249_);fill:#009D5D;}
	.st98{fill:#FFFFFF;stroke:#2B6584;stroke-width:1.6073;stroke-miterlimit:10;}
	.st99{clip-path:url(#SVGID_259_);}
</style>
<g>
	<path class="st3" d="M17.34,2.19c8.25,0,14.97,6.21,14.97,13.84c0,7.63-6.71,13.84-14.97,13.84c-8.25,0-14.97-6.21-14.97-13.84
		C2.37,8.4,9.09,2.19,17.34,2.19 M17.34,0C7.76,0,0,7.18,0,16.03s7.76,16.03,17.34,16.03s17.34-7.18,17.34-16.03S26.92,0,17.34,0
		L17.34,0z"/>
	<path class="st7" d="M14.18,20.78c-2.12-0.07-3.44-1.47-3.79-2.62c0.59,0.1,1.17,0.08,1.75-0.05c0.02,0,0.03-0.01,0.06-0.02
		c-1.15-0.25-2.03-0.81-2.65-1.73c-0.41-0.61-0.6-1.27-0.6-2c0.57,0.28,1.17,0.44,1.81,0.46c-0.86-0.57-1.44-1.33-1.68-2.29
		C8.85,11.57,9,10.66,9.52,9.8c2.21,2.4,5,3.72,8.41,3.94c-0.02-0.15-0.05-0.28-0.07-0.41c-0.11-0.89,0.08-1.71,0.6-2.46
		c0.65-0.94,1.57-1.52,2.76-1.7c1.37-0.21,2.57,0.15,3.57,1.05c0.07,0.06,0.12,0.08,0.22,0.06c0.84-0.17,1.63-0.45,2.37-0.84
		c0.02-0.01,0.04-0.02,0.05-0.03c0,0,0.01,0,0.03,0c-0.32,0.88-0.91,1.55-1.75,2.05c0.79-0.08,1.54-0.27,2.27-0.56
		C28,10.89,28,10.89,28.01,10.9c-0.16,0.19-0.31,0.38-0.47,0.57c-0.43,0.49-0.93,0.93-1.48,1.3c-0.05,0.03-0.07,0.06-0.07,0.12
		c0.02,0.56,0,1.12-0.08,1.67c-0.16,1.17-0.51,2.29-1.05,3.36c-0.56,1.1-1.29,2.1-2.2,2.97c-1.55,1.48-3.42,2.44-5.6,2.89
		c-0.75,0.15-1.51,0.23-2.27,0.25c-2.35,0.06-4.52-0.48-6.52-1.62c-0.03-0.01-0.05-0.03-0.1-0.06c1.42,0.14,2.78-0.03,4.08-0.52
		C12.93,21.56,13.57,21.22,14.18,20.78z"/>
</g>
</svg>
